<?xml version="1.0" encoding="UTF-8" standalone="no"?>
<!DOCTYPE svg PUBLIC "-//W3C//DTD SVG 1.1//EN"
 "http://www.w3.org/Graphics/SVG/1.1/DTD/svg11.dtd">
<!-- Generated by graphviz version 2.43.0 (0)
 -->
<!-- Title: include/bcmlib.h Pages: 1 -->
<svg width="597pt" height="84pt"
 viewBox="0.00 0.00 597.00 84.00" xmlns="http://www.w3.org/2000/svg" xmlns:xlink="http://www.w3.org/1999/xlink">
<g id="graph0" class="graph" transform="scale(1 1) rotate(0) translate(4 80)">
<title>include/bcmlib.h</title>
<!-- Node1 -->
<g id="node1" class="node">
<title>Node1</title>
<g id="a_node1"><a xlink:title="Library header with supported modes of operation.">
<polygon fill="#bfbfbf" stroke="black" points="241,-56.5 241,-75.5 338,-75.5 338,-56.5 241,-56.5"/>
<text text-anchor="middle" x="289.5" y="-63.5" font-family="Helvetica,sans-Serif" font-size="10.00">include/bcmlib.h</text>
</a>
</g>
</g>
<!-- Node2 -->
<g id="node2" class="node">
<title>Node2</title>
<g id="a_node2"><a xlink:href="cmc_8h.html" target="_top" xlink:title="CMC mode of operation header.">
<polygon fill="none" stroke="black" points="0,-0.5 0,-19.5 105,-19.5 105,-0.5 0,-0.5"/>
<text text-anchor="middle" x="52.5" y="-7.5" font-family="Helvetica,sans-Serif" font-size="10.00">modes/cmc/cmc.h</text>
</a>
</g>
</g>
<!-- Node1&#45;&gt;Node2 -->
<g id="edge1" class="edge">
<title>Node1&#45;&gt;Node2</title>
<path fill="none" stroke="midnightblue" d="M251.95,-56.44C210.69,-47.04 144.36,-31.93 99.63,-21.74"/>
<polygon fill="midnightblue" stroke="midnightblue" points="100.41,-18.33 89.88,-19.52 98.85,-25.15 100.41,-18.33"/>
</g>
<!-- Node3 -->
<g id="node3" class="node">
<title>Node3</title>
<g id="a_node3"><a xlink:href="heh_8h.html" target="_top" xlink:title="HEH mode of operation header.">
<polygon fill="none" stroke="black" points="123,-0.5 123,-19.5 224,-19.5 224,-0.5 123,-0.5"/>
<text text-anchor="middle" x="173.5" y="-7.5" font-family="Helvetica,sans-Serif" font-size="10.00">modes/heh/heh.h</text>
</a>
</g>
</g>
<!-- Node1&#45;&gt;Node3 -->
<g id="edge2" class="edge">
<title>Node1&#45;&gt;Node3</title>
<path fill="none" stroke="midnightblue" d="M271.12,-56.44C252.28,-47.68 222.77,-33.94 201.12,-23.86"/>
<polygon fill="midnightblue" stroke="midnightblue" points="202.34,-20.56 191.79,-19.52 199.38,-26.91 202.34,-20.56"/>
</g>
<!-- Node4 -->
<g id="node4" class="node">
<title>Node4</title>
<g id="a_node4"><a xlink:href="xts_8h.html" target="_top" xlink:title="XTS mode of operation header.">
<polygon fill="none" stroke="black" points="242,-0.5 242,-19.5 337,-19.5 337,-0.5 242,-0.5"/>
<text text-anchor="middle" x="289.5" y="-7.5" font-family="Helvetica,sans-Serif" font-size="10.00">modes/xts/xts.h</text>
</a>
</g>
</g>
<!-- Node1&#45;&gt;Node4 -->
<g id="edge3" class="edge">
<title>Node1&#45;&gt;Node4</title>
<path fill="none" stroke="midnightblue" d="M289.5,-56.08C289.5,-49.01 289.5,-38.86 289.5,-29.99"/>
<polygon fill="midnightblue" stroke="midnightblue" points="293,-29.75 289.5,-19.75 286,-29.75 293,-29.75"/>
</g>
<!-- Node5 -->
<g id="node5" class="node">
<title>Node5</title>
<g id="a_node5"><a xlink:href="cmac_8h.html" target="_top" xlink:title="CMAC mode of operation header.">
<polygon fill="none" stroke="black" points="355,-0.5 355,-19.5 472,-19.5 472,-0.5 355,-0.5"/>
<text text-anchor="middle" x="413.5" y="-7.5" font-family="Helvetica,sans-Serif" font-size="10.00">modes/cmac/cmac.h</text>
</a>
</g>
</g>
<!-- Node1&#45;&gt;Node5 -->
<g id="edge4" class="edge">
<title>Node1&#45;&gt;Node5</title>
<path fill="none" stroke="midnightblue" d="M309.15,-56.44C329.46,-47.6 361.4,-33.69 384.6,-23.59"/>
<polygon fill="midnightblue" stroke="midnightblue" points="386.17,-26.72 393.94,-19.52 383.38,-20.3 386.17,-26.72"/>
</g>
<!-- Node6 -->
<g id="node6" class="node">
<title>Node6</title>
<g id="a_node6"><a xlink:href="dec_8h.html" target="_top" xlink:title="DEC mode of operation header.">
<polygon fill="none" stroke="black" points="490,-0.5 490,-19.5 589,-19.5 589,-0.5 490,-0.5"/>
<text text-anchor="middle" x="539.5" y="-7.5" font-family="Helvetica,sans-Serif" font-size="10.00">modes/dec/dec.h</text>
</a>
</g>
</g>
<!-- Node1&#45;&gt;Node6 -->
<g id="edge5" class="edge">
<title>Node1&#45;&gt;Node6</title>
<path fill="none" stroke="midnightblue" d="M329.11,-56.44C372.73,-47.02 442.9,-31.87 490.08,-21.68"/>
<polygon fill="midnightblue" stroke="midnightblue" points="491.04,-25.05 500.07,-19.52 489.56,-18.21 491.04,-25.05"/>
</g>
</g>
</svg>
