<?xml version="1.0" encoding="UTF-8" standalone="no"?>
<!DOCTYPE svg PUBLIC "-//W3C//DTD SVG 1.1//EN"
 "http://www.w3.org/Graphics/SVG/1.1/DTD/svg11.dtd">
<!-- Generated by graphviz version 2.43.0 (0)
 -->
<!-- Title: include/bcmlib.h Pages: 1 -->
<svg width="345pt" height="84pt"
 viewBox="0.00 0.00 345.00 84.00" xmlns="http://www.w3.org/2000/svg" xmlns:xlink="http://www.w3.org/1999/xlink">
<g id="graph0" class="graph" transform="scale(1 1) rotate(0) translate(4 80)">
<title>include/bcmlib.h</title>
<!-- Node1 -->
<g id="node1" class="node">
<title>Node1</title>
<g id="a_node1"><a xlink:title="Library header with supported modes of operation.">
<polygon fill="#bfbfbf" stroke="black" points="125,-56.5 125,-75.5 222,-75.5 222,-56.5 125,-56.5"/>
<text text-anchor="middle" x="173.5" y="-63.5" font-family="Helvetica,sans-Serif" font-size="10.00">include/bcmlib.h</text>
</a>
</g>
</g>
<!-- Node2 -->
<g id="node2" class="node">
<title>Node2</title>
<g id="a_node2"><a xlink:href="cmc_8h.html" target="_top" xlink:title="CMC mode of operation header.">
<polygon fill="none" stroke="black" points="0,-0.5 0,-19.5 105,-19.5 105,-0.5 0,-0.5"/>
<text text-anchor="middle" x="52.5" y="-7.5" font-family="Helvetica,sans-Serif" font-size="10.00">modes/cmc/cmc.h</text>
</a>
</g>
</g>
<!-- Node1&#45;&gt;Node2 -->
<g id="edge1" class="edge">
<title>Node1&#45;&gt;Node2</title>
<path fill="none" stroke="midnightblue" d="M154.33,-56.44C134.59,-47.64 103.61,-33.81 81.01,-23.72"/>
<polygon fill="midnightblue" stroke="midnightblue" points="82.14,-20.4 71.58,-19.52 79.29,-26.79 82.14,-20.4"/>
</g>
<!-- Node3 -->
<g id="node3" class="node">
<title>Node3</title>
<g id="a_node3"><a xlink:href="heh_8h.html" target="_top" xlink:title="HEH mode of operation header.">
<polygon fill="none" stroke="black" points="123,-0.5 123,-19.5 224,-19.5 224,-0.5 123,-0.5"/>
<text text-anchor="middle" x="173.5" y="-7.5" font-family="Helvetica,sans-Serif" font-size="10.00">modes/heh/heh.h</text>
</a>
</g>
</g>
<!-- Node1&#45;&gt;Node3 -->
<g id="edge2" class="edge">
<title>Node1&#45;&gt;Node3</title>
<path fill="none" stroke="midnightblue" d="M173.5,-56.08C173.5,-49.01 173.5,-38.86 173.5,-29.99"/>
<polygon fill="midnightblue" stroke="midnightblue" points="177,-29.75 173.5,-19.75 170,-29.75 177,-29.75"/>
</g>
<!-- Node4 -->
<g id="node4" class="node">
<title>Node4</title>
<g id="a_node4"><a xlink:href="xts_8h.html" target="_top" xlink:title="XTS mode of operation header.">
<polygon fill="none" stroke="black" points="242,-0.5 242,-19.5 337,-19.5 337,-0.5 242,-0.5"/>
<text text-anchor="middle" x="289.5" y="-7.5" font-family="Helvetica,sans-Serif" font-size="10.00">modes/xts/xts.h</text>
</a>
</g>
</g>
<!-- Node1&#45;&gt;Node4 -->
<g id="edge3" class="edge">
<title>Node1&#45;&gt;Node4</title>
<path fill="none" stroke="midnightblue" d="M191.88,-56.44C210.72,-47.68 240.23,-33.94 261.88,-23.86"/>
<polygon fill="midnightblue" stroke="midnightblue" points="263.62,-26.91 271.21,-19.52 260.66,-20.56 263.62,-26.91"/>
</g>
</g>
</svg>
