<?xml version="1.0" encoding="UTF-8" standalone="no"?>
<!DOCTYPE svg PUBLIC "-//W3C//DTD SVG 1.1//EN"
 "http://www.w3.org/Graphics/SVG/1.1/DTD/svg11.dtd">
<!-- Generated by graphviz version 2.43.0 (0)
 -->
<!-- Title: include/modes/cmac/cmac.h Pages: 1 -->
<svg width="392pt" height="95pt"
 viewBox="0.00 0.00 391.50 95.00" xmlns="http://www.w3.org/2000/svg" xmlns:xlink="http://www.w3.org/1999/xlink">
<g id="graph0" class="graph" transform="scale(1 1) rotate(0) translate(4 91)">
<title>include/modes/cmac/cmac.h</title>
<!-- Node1 -->
<g id="node1" class="node">
<title>Node1</title>
<g id="a_node1"><a xlink:title="CMAC mode of operation header.">
<polygon fill="#bfbfbf" stroke="black" points="124,-56.5 124,-86.5 241,-86.5 241,-56.5 124,-56.5"/>
<text text-anchor="start" x="132" y="-74.5" font-family="Helvetica,sans-Serif" font-size="10.00">include/modes/cmac</text>
<text text-anchor="middle" x="182.5" y="-63.5" font-family="Helvetica,sans-Serif" font-size="10.00">/cmac.h</text>
</a>
</g>
</g>
<!-- Node2 -->
<g id="node2" class="node">
<title>Node2</title>
<g id="a_node2"><a xlink:href="bcmlib_8h.html" target="_top" xlink:title="Library header with supported modes of operation.">
<polygon fill="none" stroke="black" points="0,-0.5 0,-19.5 97,-19.5 97,-0.5 0,-0.5"/>
<text text-anchor="middle" x="48.5" y="-7.5" font-family="Helvetica,sans-Serif" font-size="10.00">include/bcmlib.h</text>
</a>
</g>
</g>
<!-- Node1&#45;&gt;Node2 -->
<g id="edge1" class="edge">
<title>Node1&#45;&gt;Node2</title>
<path fill="none" stroke="midnightblue" d="M141.35,-52.23C116.95,-41.39 87.15,-28.16 68,-19.66"/>
<polygon fill="midnightblue" stroke="midnightblue" points="140.18,-55.54 150.74,-56.4 143.02,-49.14 140.18,-55.54"/>
</g>
<!-- Node3 -->
<g id="node3" class="node">
<title>Node3</title>
<g id="a_node3"><a xlink:href="cmac_8c.html" target="_top" xlink:title="CMAC mode of operation implementation.">
<polygon fill="none" stroke="black" points="115.5,-0.5 115.5,-19.5 249.5,-19.5 249.5,-0.5 115.5,-0.5"/>
<text text-anchor="middle" x="182.5" y="-7.5" font-family="Helvetica,sans-Serif" font-size="10.00">src/modes/cmac/cmac.c</text>
</a>
</g>
</g>
<!-- Node1&#45;&gt;Node3 -->
<g id="edge2" class="edge">
<title>Node1&#45;&gt;Node3</title>
<path fill="none" stroke="midnightblue" d="M182.5,-46.29C182.5,-36.86 182.5,-26.65 182.5,-19.66"/>
<polygon fill="midnightblue" stroke="midnightblue" points="179,-46.4 182.5,-56.4 186,-46.4 179,-46.4"/>
</g>
<!-- Node4 -->
<g id="node4" class="node">
<title>Node4</title>
<g id="a_node4"><a xlink:href="dec_8c.html" target="_top" xlink:title="DEC mode of operation implementation.">
<polygon fill="none" stroke="black" points="267.5,-0.5 267.5,-19.5 383.5,-19.5 383.5,-0.5 267.5,-0.5"/>
<text text-anchor="middle" x="325.5" y="-7.5" font-family="Helvetica,sans-Serif" font-size="10.00">src/modes/dec/dec.c</text>
</a>
</g>
</g>
<!-- Node1&#45;&gt;Node4 -->
<g id="edge3" class="edge">
<title>Node1&#45;&gt;Node4</title>
<path fill="none" stroke="midnightblue" d="M225.72,-52.52C251.89,-41.63 284.08,-28.23 304.69,-19.66"/>
<polygon fill="midnightblue" stroke="midnightblue" points="224.28,-49.33 216.39,-56.4 226.97,-55.79 224.28,-49.33"/>
</g>
</g>
</svg>
