<?xml version="1.0" encoding="UTF-8" standalone="no"?>
<!DOCTYPE svg PUBLIC "-//W3C//DTD SVG 1.1//EN"
 "http://www.w3.org/Graphics/SVG/1.1/DTD/svg11.dtd">
<!-- Generated by graphviz version 2.43.0 (0)
 -->
<!-- Title: src/modes/cmac/cmac.c Pages: 1 -->
<svg width="490pt" height="84pt"
 viewBox="0.00 0.00 489.50 84.00" xmlns="http://www.w3.org/2000/svg" xmlns:xlink="http://www.w3.org/1999/xlink">
<g id="graph0" class="graph" transform="scale(1 1) rotate(0) translate(4 80)">
<title>src/modes/cmac/cmac.c</title>
<!-- Node1 -->
<g id="node1" class="node">
<title>Node1</title>
<g id="a_node1"><a xlink:title="CMAC mode of operation implementation.">
<polygon fill="#bfbfbf" stroke="black" points="203.5,-56.5 203.5,-75.5 337.5,-75.5 337.5,-56.5 203.5,-56.5"/>
<text text-anchor="middle" x="270.5" y="-63.5" font-family="Helvetica,sans-Serif" font-size="10.00">src/modes/cmac/cmac.c</text>
</a>
</g>
</g>
<!-- Node2 -->
<g id="node2" class="node">
<title>Node2</title>
<g id="a_node2"><a xlink:href="cmac_8h.html" target="_top" xlink:title="CMAC mode of operation header.">
<polygon fill="none" stroke="black" points="0,-0.5 0,-19.5 117,-19.5 117,-0.5 0,-0.5"/>
<text text-anchor="middle" x="58.5" y="-7.5" font-family="Helvetica,sans-Serif" font-size="10.00">modes/cmac/cmac.h</text>
</a>
</g>
</g>
<!-- Node1&#45;&gt;Node2 -->
<g id="edge1" class="edge">
<title>Node1&#45;&gt;Node2</title>
<path fill="none" stroke="midnightblue" d="M236.91,-56.44C200.31,-47.12 141.66,-32.18 101.67,-22"/>
<polygon fill="midnightblue" stroke="midnightblue" points="102.49,-18.59 91.93,-19.52 100.76,-25.38 102.49,-18.59"/>
</g>
<!-- Node3 -->
<g id="node3" class="node">
<title>Node3</title>
<g id="a_node3"><a xlink:href="utils_8h.html" target="_top" xlink:title="Some useful helper things.">
<polygon fill="none" stroke="black" points="135.5,-0.5 135.5,-19.5 227.5,-19.5 227.5,-0.5 135.5,-0.5"/>
<text text-anchor="middle" x="181.5" y="-7.5" font-family="Helvetica,sans-Serif" font-size="10.00">common/utils.h</text>
</a>
</g>
</g>
<!-- Node1&#45;&gt;Node3 -->
<g id="edge2" class="edge">
<title>Node1&#45;&gt;Node3</title>
<path fill="none" stroke="midnightblue" d="M256.2,-56.32C242.32,-47.9 221.01,-34.97 204.7,-25.07"/>
<polygon fill="midnightblue" stroke="midnightblue" points="206.13,-21.85 195.76,-19.65 202.5,-27.83 206.13,-21.85"/>
</g>
<!-- Node4 -->
<g id="node4" class="node">
<title>Node4</title>
<g id="a_node4"><a xlink:title=" ">
<polygon fill="none" stroke="#bfbfbf" points="246,-0.5 246,-19.5 295,-19.5 295,-0.5 246,-0.5"/>
<text text-anchor="middle" x="270.5" y="-7.5" font-family="Helvetica,sans-Serif" font-size="10.00">bclib.h</text>
</a>
</g>
</g>
<!-- Node1&#45;&gt;Node4 -->
<g id="edge3" class="edge">
<title>Node1&#45;&gt;Node4</title>
<path fill="none" stroke="midnightblue" d="M270.5,-56.08C270.5,-49.01 270.5,-38.86 270.5,-29.99"/>
<polygon fill="midnightblue" stroke="midnightblue" points="274,-29.75 270.5,-19.75 267,-29.75 274,-29.75"/>
</g>
<!-- Node5 -->
<g id="node5" class="node">
<title>Node5</title>
<g id="a_node5"><a xlink:title=" ">
<polygon fill="none" stroke="#bfbfbf" points="313.5,-0.5 313.5,-19.5 387.5,-19.5 387.5,-0.5 313.5,-0.5"/>
<text text-anchor="middle" x="350.5" y="-7.5" font-family="Helvetica,sans-Serif" font-size="10.00">immintrin.h</text>
</a>
</g>
</g>
<!-- Node1&#45;&gt;Node5 -->
<g id="edge4" class="edge">
<title>Node1&#45;&gt;Node5</title>
<path fill="none" stroke="midnightblue" d="M283.35,-56.32C295.72,-47.98 314.63,-35.21 329.24,-25.35"/>
<polygon fill="midnightblue" stroke="midnightblue" points="331.35,-28.15 337.68,-19.65 327.43,-22.35 331.35,-28.15"/>
</g>
<!-- Node6 -->
<g id="node6" class="node">
<title>Node6</title>
<g id="a_node6"><a xlink:title=" ">
<polygon fill="none" stroke="#bfbfbf" points="405.5,-0.5 405.5,-19.5 481.5,-19.5 481.5,-0.5 405.5,-0.5"/>
<text text-anchor="middle" x="443.5" y="-7.5" font-family="Helvetica,sans-Serif" font-size="10.00">smmintrin.h</text>
</a>
</g>
</g>
<!-- Node1&#45;&gt;Node6 -->
<g id="edge5" class="edge">
<title>Node1&#45;&gt;Node6</title>
<path fill="none" stroke="midnightblue" d="M297.91,-56.44C327.27,-47.28 374.02,-32.69 406.6,-22.52"/>
<polygon fill="midnightblue" stroke="midnightblue" points="407.71,-25.84 416.22,-19.52 405.63,-19.16 407.71,-25.84"/>
</g>
</g>
</svg>
