<?xml version="1.0" encoding="UTF-8" standalone="no"?>
<!DOCTYPE svg PUBLIC "-//W3C//DTD SVG 1.1//EN"
 "http://www.w3.org/Graphics/SVG/1.1/DTD/svg11.dtd">
<!-- Generated by graphviz version 2.43.0 (0)
 -->
<!-- Title: src/modes/cmc/cmc.c Pages: 1 -->
<svg width="469pt" height="84pt"
 viewBox="0.00 0.00 468.50 84.00" xmlns="http://www.w3.org/2000/svg" xmlns:xlink="http://www.w3.org/1999/xlink">
<g id="graph0" class="graph" transform="scale(1 1) rotate(0) translate(4 80)">
<title>src/modes/cmc/cmc.c</title>
<!-- Node1 -->
<g id="node1" class="node">
<title>Node1</title>
<g id="a_node1"><a xlink:title="CMC mode of operation implementation.">
<polygon fill="#bfbfbf" stroke="black" points="197.5,-56.5 197.5,-75.5 319.5,-75.5 319.5,-56.5 197.5,-56.5"/>
<text text-anchor="middle" x="258.5" y="-63.5" font-family="Helvetica,sans-Serif" font-size="10.00">src/modes/cmc/cmc.c</text>
</a>
</g>
</g>
<!-- Node2 -->
<g id="node2" class="node">
<title>Node2</title>
<g id="a_node2"><a xlink:href="cmc_8h.html" target="_top" xlink:title="CMC mode of operation header.">
<polygon fill="none" stroke="black" points="0,-0.5 0,-19.5 105,-19.5 105,-0.5 0,-0.5"/>
<text text-anchor="middle" x="52.5" y="-7.5" font-family="Helvetica,sans-Serif" font-size="10.00">modes/cmc/cmc.h</text>
</a>
</g>
</g>
<!-- Node1&#45;&gt;Node2 -->
<g id="edge1" class="edge">
<title>Node1&#45;&gt;Node2</title>
<path fill="none" stroke="midnightblue" d="M225.86,-56.44C190.45,-47.16 133.79,-32.31 94.95,-22.13"/>
<polygon fill="midnightblue" stroke="midnightblue" points="95.55,-18.67 84.99,-19.52 93.77,-25.44 95.55,-18.67"/>
</g>
<!-- Node3 -->
<g id="node3" class="node">
<title>Node3</title>
<g id="a_node3"><a xlink:href="utils_8h.html" target="_top" xlink:title="Some useful helper things.">
<polygon fill="none" stroke="black" points="123.5,-0.5 123.5,-19.5 215.5,-19.5 215.5,-0.5 123.5,-0.5"/>
<text text-anchor="middle" x="169.5" y="-7.5" font-family="Helvetica,sans-Serif" font-size="10.00">common/utils.h</text>
</a>
</g>
</g>
<!-- Node1&#45;&gt;Node3 -->
<g id="edge2" class="edge">
<title>Node1&#45;&gt;Node3</title>
<path fill="none" stroke="midnightblue" d="M244.2,-56.32C230.32,-47.9 209.01,-34.97 192.7,-25.07"/>
<polygon fill="midnightblue" stroke="midnightblue" points="194.13,-21.85 183.76,-19.65 190.5,-27.83 194.13,-21.85"/>
</g>
<!-- Node4 -->
<g id="node4" class="node">
<title>Node4</title>
<g id="a_node4"><a xlink:title=" ">
<polygon fill="none" stroke="#bfbfbf" points="234,-0.5 234,-19.5 283,-19.5 283,-0.5 234,-0.5"/>
<text text-anchor="middle" x="258.5" y="-7.5" font-family="Helvetica,sans-Serif" font-size="10.00">bclib.h</text>
</a>
</g>
</g>
<!-- Node1&#45;&gt;Node4 -->
<g id="edge3" class="edge">
<title>Node1&#45;&gt;Node4</title>
<path fill="none" stroke="midnightblue" d="M258.5,-56.08C258.5,-49.01 258.5,-38.86 258.5,-29.99"/>
<polygon fill="midnightblue" stroke="midnightblue" points="262,-29.75 258.5,-19.75 255,-29.75 262,-29.75"/>
</g>
<!-- Node5 -->
<g id="node5" class="node">
<title>Node5</title>
<g id="a_node5"><a xlink:title=" ">
<polygon fill="none" stroke="#bfbfbf" points="301,-0.5 301,-19.5 368,-19.5 368,-0.5 301,-0.5"/>
<text text-anchor="middle" x="334.5" y="-7.5" font-family="Helvetica,sans-Serif" font-size="10.00">galoislib.h</text>
</a>
</g>
</g>
<!-- Node1&#45;&gt;Node5 -->
<g id="edge4" class="edge">
<title>Node1&#45;&gt;Node5</title>
<path fill="none" stroke="midnightblue" d="M270.71,-56.32C282.28,-48.11 299.88,-35.6 313.66,-25.81"/>
<polygon fill="midnightblue" stroke="midnightblue" points="315.94,-28.48 322.07,-19.83 311.89,-22.77 315.94,-28.48"/>
</g>
<!-- Node6 -->
<g id="node6" class="node">
<title>Node6</title>
<g id="a_node6"><a xlink:title=" ">
<polygon fill="none" stroke="#bfbfbf" points="386.5,-0.5 386.5,-19.5 460.5,-19.5 460.5,-0.5 386.5,-0.5"/>
<text text-anchor="middle" x="423.5" y="-7.5" font-family="Helvetica,sans-Serif" font-size="10.00">immintrin.h</text>
</a>
</g>
</g>
<!-- Node1&#45;&gt;Node6 -->
<g id="edge5" class="edge">
<title>Node1&#45;&gt;Node6</title>
<path fill="none" stroke="midnightblue" d="M284.64,-56.44C312.52,-47.32 356.85,-32.81 387.9,-22.65"/>
<polygon fill="midnightblue" stroke="midnightblue" points="389.06,-25.95 397.48,-19.52 386.88,-19.3 389.06,-25.95"/>
</g>
</g>
</svg>
