<?xml version="1.0" encoding="UTF-8" standalone="no"?>
<!DOCTYPE svg PUBLIC "-//W3C//DTD SVG 1.1//EN"
 "http://www.w3.org/Graphics/SVG/1.1/DTD/svg11.dtd">
<!-- Generated by graphviz version 2.43.0 (0)
 -->
<!-- Title: include/modes/cmc/cmc.h Pages: 1 -->
<svg width="246pt" height="84pt"
 viewBox="0.00 0.00 245.50 84.00" xmlns="http://www.w3.org/2000/svg" xmlns:xlink="http://www.w3.org/1999/xlink">
<g id="graph0" class="graph" transform="scale(1 1) rotate(0) translate(4 80)">
<title>include/modes/cmc/cmc.h</title>
<!-- Node1 -->
<g id="node1" class="node">
<title>Node1</title>
<g id="a_node1"><a xlink:title="CMC mode of operation header.">
<polygon fill="#bfbfbf" stroke="black" points="41,-56.5 41,-75.5 184,-75.5 184,-56.5 41,-56.5"/>
<text text-anchor="middle" x="112.5" y="-63.5" font-family="Helvetica,sans-Serif" font-size="10.00">include/modes/cmc/cmc.h</text>
</a>
</g>
</g>
<!-- Node2 -->
<g id="node2" class="node">
<title>Node2</title>
<g id="a_node2"><a xlink:href="bcmlib_8h.html" target="_top" xlink:title="Library header with supported modes of operation.">
<polygon fill="none" stroke="black" points="0,-0.5 0,-19.5 97,-19.5 97,-0.5 0,-0.5"/>
<text text-anchor="middle" x="48.5" y="-7.5" font-family="Helvetica,sans-Serif" font-size="10.00">include/bcmlib.h</text>
</a>
</g>
</g>
<!-- Node1&#45;&gt;Node2 -->
<g id="edge1" class="edge">
<title>Node1&#45;&gt;Node2</title>
<path fill="none" stroke="midnightblue" d="M94.51,-49.82C83.04,-40.15 68.59,-27.95 58.97,-19.83"/>
<polygon fill="midnightblue" stroke="midnightblue" points="92.32,-52.55 102.22,-56.32 96.83,-47.2 92.32,-52.55"/>
</g>
<!-- Node3 -->
<g id="node3" class="node">
<title>Node3</title>
<g id="a_node3"><a xlink:href="cmc_8c.html" target="_top" xlink:title="CMC mode of operation implementation.">
<polygon fill="none" stroke="black" points="115.5,-0.5 115.5,-19.5 237.5,-19.5 237.5,-0.5 115.5,-0.5"/>
<text text-anchor="middle" x="176.5" y="-7.5" font-family="Helvetica,sans-Serif" font-size="10.00">src/modes/cmc/cmc.c</text>
</a>
</g>
</g>
<!-- Node1&#45;&gt;Node3 -->
<g id="edge2" class="edge">
<title>Node1&#45;&gt;Node3</title>
<path fill="none" stroke="midnightblue" d="M130.49,-49.82C141.96,-40.15 156.41,-27.95 166.03,-19.83"/>
<polygon fill="midnightblue" stroke="midnightblue" points="128.17,-47.2 122.78,-56.32 132.68,-52.55 128.17,-47.2"/>
</g>
</g>
</svg>
