<?xml version="1.0" encoding="UTF-8" standalone="no"?>
<!DOCTYPE svg PUBLIC "-//W3C//DTD SVG 1.1//EN"
 "http://www.w3.org/Graphics/SVG/1.1/DTD/svg11.dtd">
<!-- Generated by graphviz version 2.43.0 (0)
 -->
<!-- Title: src/modes/dec/dec.c Pages: 1 -->
<svg width="584pt" height="84pt"
 viewBox="0.00 0.00 583.50 84.00" xmlns="http://www.w3.org/2000/svg" xmlns:xlink="http://www.w3.org/1999/xlink">
<g id="graph0" class="graph" transform="scale(1 1) rotate(0) translate(4 80)">
<title>src/modes/dec/dec.c</title>
<!-- Node1 -->
<g id="node1" class="node">
<title>Node1</title>
<g id="a_node1"><a xlink:title="DEC mode of operation implementation.">
<polygon fill="#bfbfbf" stroke="black" points="284.5,-56.5 284.5,-75.5 400.5,-75.5 400.5,-56.5 284.5,-56.5"/>
<text text-anchor="middle" x="342.5" y="-63.5" font-family="Helvetica,sans-Serif" font-size="10.00">src/modes/dec/dec.c</text>
</a>
</g>
</g>
<!-- Node2 -->
<g id="node2" class="node">
<title>Node2</title>
<g id="a_node2"><a xlink:href="dec_8h.html" target="_top" xlink:title="DEC mode of operation header.">
<polygon fill="none" stroke="black" points="0,-0.5 0,-19.5 99,-19.5 99,-0.5 0,-0.5"/>
<text text-anchor="middle" x="49.5" y="-7.5" font-family="Helvetica,sans-Serif" font-size="10.00">modes/dec/dec.h</text>
</a>
</g>
</g>
<!-- Node1&#45;&gt;Node2 -->
<g id="edge1" class="edge">
<title>Node1&#45;&gt;Node2</title>
<path fill="none" stroke="midnightblue" d="M296.07,-56.44C244.42,-46.92 160.99,-31.55 105.69,-21.36"/>
<polygon fill="midnightblue" stroke="midnightblue" points="106.18,-17.89 95.71,-19.52 104.91,-24.77 106.18,-17.89"/>
</g>
<!-- Node3 -->
<g id="node3" class="node">
<title>Node3</title>
<g id="a_node3"><a xlink:href="cmac_8h.html" target="_top" xlink:title="CMAC mode of operation header.">
<polygon fill="none" stroke="black" points="117,-0.5 117,-19.5 234,-19.5 234,-0.5 117,-0.5"/>
<text text-anchor="middle" x="175.5" y="-7.5" font-family="Helvetica,sans-Serif" font-size="10.00">modes/cmac/cmac.h</text>
</a>
</g>
</g>
<!-- Node1&#45;&gt;Node3 -->
<g id="edge2" class="edge">
<title>Node1&#45;&gt;Node3</title>
<path fill="none" stroke="midnightblue" d="M316.04,-56.44C287.82,-47.32 242.96,-32.81 211.53,-22.65"/>
<polygon fill="midnightblue" stroke="midnightblue" points="212.43,-19.26 201.84,-19.52 210.28,-25.92 212.43,-19.26"/>
</g>
<!-- Node4 -->
<g id="node4" class="node">
<title>Node4</title>
<g id="a_node4"><a xlink:href="utils_8h.html" target="_top" xlink:title="Some useful helper things.">
<polygon fill="none" stroke="black" points="252.5,-0.5 252.5,-19.5 344.5,-19.5 344.5,-0.5 252.5,-0.5"/>
<text text-anchor="middle" x="298.5" y="-7.5" font-family="Helvetica,sans-Serif" font-size="10.00">common/utils.h</text>
</a>
</g>
</g>
<!-- Node1&#45;&gt;Node4 -->
<g id="edge3" class="edge">
<title>Node1&#45;&gt;Node4</title>
<path fill="none" stroke="midnightblue" d="M335.23,-56.08C328.96,-48.38 319.71,-37.03 312.07,-27.65"/>
<polygon fill="midnightblue" stroke="midnightblue" points="314.66,-25.29 305.63,-19.75 309.23,-29.71 314.66,-25.29"/>
</g>
<!-- Node5 -->
<g id="node5" class="node">
<title>Node5</title>
<g id="a_node5"><a xlink:title=" ">
<polygon fill="none" stroke="#bfbfbf" points="363,-0.5 363,-19.5 412,-19.5 412,-0.5 363,-0.5"/>
<text text-anchor="middle" x="387.5" y="-7.5" font-family="Helvetica,sans-Serif" font-size="10.00">bclib.h</text>
</a>
</g>
</g>
<!-- Node1&#45;&gt;Node5 -->
<g id="edge4" class="edge">
<title>Node1&#45;&gt;Node5</title>
<path fill="none" stroke="midnightblue" d="M349.93,-56.08C356.35,-48.38 365.81,-37.03 373.62,-27.65"/>
<polygon fill="midnightblue" stroke="midnightblue" points="376.49,-29.67 380.21,-19.75 371.12,-25.19 376.49,-29.67"/>
</g>
<!-- Node6 -->
<g id="node6" class="node">
<title>Node6</title>
<g id="a_node6"><a xlink:title=" ">
<polygon fill="none" stroke="#bfbfbf" points="430,-0.5 430,-19.5 483,-19.5 483,-0.5 430,-0.5"/>
<text text-anchor="middle" x="456.5" y="-7.5" font-family="Helvetica,sans-Serif" font-size="10.00">kdflib.h</text>
</a>
</g>
</g>
<!-- Node1&#45;&gt;Node6 -->
<g id="edge5" class="edge">
<title>Node1&#45;&gt;Node6</title>
<path fill="none" stroke="midnightblue" d="M360.56,-56.44C379.07,-47.68 408.08,-33.94 429.36,-23.86"/>
<polygon fill="midnightblue" stroke="midnightblue" points="430.98,-26.96 438.52,-19.52 427.99,-20.63 430.98,-26.96"/>
</g>
<!-- Node7 -->
<g id="node7" class="node">
<title>Node7</title>
<g id="a_node7"><a xlink:title=" ">
<polygon fill="none" stroke="#bfbfbf" points="501.5,-0.5 501.5,-19.5 575.5,-19.5 575.5,-0.5 501.5,-0.5"/>
<text text-anchor="middle" x="538.5" y="-7.5" font-family="Helvetica,sans-Serif" font-size="10.00">immintrin.h</text>
</a>
</g>
</g>
<!-- Node1&#45;&gt;Node7 -->
<g id="edge6" class="edge">
<title>Node1&#45;&gt;Node7</title>
<path fill="none" stroke="midnightblue" d="M373.56,-56.44C407.1,-47.2 460.7,-32.44 497.64,-22.26"/>
<polygon fill="midnightblue" stroke="midnightblue" points="498.88,-25.55 507.59,-19.52 497.02,-18.8 498.88,-25.55"/>
</g>
</g>
</svg>
