<?xml version="1.0" encoding="UTF-8" standalone="no"?>
<!DOCTYPE svg PUBLIC "-//W3C//DTD SVG 1.1//EN"
 "http://www.w3.org/Graphics/SVG/1.1/DTD/svg11.dtd">
<!-- Generated by graphviz version 2.43.0 (0)
 -->
<!-- Title: src/modes Pages: 1 -->
<svg width="470pt" height="159pt"
 viewBox="0.00 0.00 470.00 159.00" xmlns="http://www.w3.org/2000/svg" xmlns:xlink="http://www.w3.org/1999/xlink">
<g id="graph0" class="graph" transform="scale(1 1) rotate(0) translate(4 155)">
<title>src/modes</title>
<g id="clust1" class="cluster">
<title>clusterdir_68267d1309a1af8e8297ef4c3efbcdba</title>
<g id="a_clust1"><a xlink:href="dir_68267d1309a1af8e8297ef4c3efbcdba.html" target="_top" xlink:title="src">
<polygon fill="#ddddee" stroke="black" points="8,-56 8,-143 454,-143 454,-56 8,-56"/>
<text text-anchor="middle" x="231" y="-131" font-family="Helvetica,sans-Serif" font-size="10.00">src</text>
</a>
</g>
</g>
<g id="clust2" class="cluster">
<title>clusterdir_56eae0215e05553a489738ed366f5701</title>
<g id="a_clust2"><a xlink:href="dir_56eae0215e05553a489738ed366f5701.html" target="_top">
<polygon fill="#eeeeff" stroke="black" points="16,-64 16,-116 446,-116 446,-64 16,-64"/>
</a>
</g>
</g>
<!-- dir_56eae0215e05553a489738ed366f5701 -->
<g id="node1" class="node">
<title>dir_56eae0215e05553a489738ed366f5701</title>
<text text-anchor="middle" x="411" y="-87.5" font-family="Helvetica,sans-Serif" font-size="10.00">modes</text>
</g>
<!-- dir_35d0d7f1ae64d3c5296deb3c5307fe2a -->
<g id="node2" class="node">
<title>dir_35d0d7f1ae64d3c5296deb3c5307fe2a</title>
<g id="a_node2"><a xlink:href="dir_35d0d7f1ae64d3c5296deb3c5307fe2a.html" target="_top" xlink:title="cmac">
<polygon fill="white" stroke="black" points="366,-108 312,-108 312,-72 366,-72 366,-108"/>
<text text-anchor="middle" x="339" y="-87.5" font-family="Helvetica,sans-Serif" font-size="10.00">cmac</text>
</a>
</g>
</g>
<!-- dir_d44c64559bbebec7f509842c48db8b23 -->
<g id="node7" class="node">
<title>dir_d44c64559bbebec7f509842c48db8b23</title>
<g id="a_node7"><a xlink:href="dir_d44c64559bbebec7f509842c48db8b23.html" target="_top" xlink:title="include">
<polygon fill="none" stroke="red" points="222,-36 168,-36 168,0 222,0 222,-36"/>
<text text-anchor="middle" x="195" y="-15.5" font-family="Helvetica,sans-Serif" font-size="10.00">include</text>
</a>
</g>
</g>
<!-- dir_35d0d7f1ae64d3c5296deb3c5307fe2a&#45;&gt;dir_d44c64559bbebec7f509842c48db8b23 -->
<g id="edge1" class="edge">
<title>dir_35d0d7f1ae64d3c5296deb3c5307fe2a&#45;&gt;dir_d44c64559bbebec7f509842c48db8b23</title>
<path fill="none" stroke="black" d="M323.31,-72C317.38,-66.31 310.29,-60.33 303,-56 280.93,-42.89 253.56,-33.58 231.89,-27.57"/>
<polygon fill="black" stroke="black" points="232.63,-24.15 222.07,-24.97 230.84,-30.92 232.63,-24.15"/>
<g id="a_edge1&#45;headlabel"><a xlink:href="dir_000011_000000.html" target="_top" xlink:title="2">
<text text-anchor="middle" x="236.83" y="-19.83" font-family="Helvetica,sans-Serif" font-size="10.00">2</text>
</a>
</g>
</g>
<!-- dir_e9e0146d8a5985cc51f4143a58f3081b -->
<g id="node3" class="node">
<title>dir_e9e0146d8a5985cc51f4143a58f3081b</title>
<g id="a_node3"><a xlink:href="dir_e9e0146d8a5985cc51f4143a58f3081b.html" target="_top" xlink:title="cmc">
<polygon fill="white" stroke="black" points="294,-108 240,-108 240,-72 294,-72 294,-108"/>
<text text-anchor="middle" x="267" y="-87.5" font-family="Helvetica,sans-Serif" font-size="10.00">cmc</text>
</a>
</g>
</g>
<!-- dir_e9e0146d8a5985cc51f4143a58f3081b&#45;&gt;dir_d44c64559bbebec7f509842c48db8b23 -->
<g id="edge5" class="edge">
<title>dir_e9e0146d8a5985cc51f4143a58f3081b&#45;&gt;dir_d44c64559bbebec7f509842c48db8b23</title>
<path fill="none" stroke="black" d="M249.2,-71.7C240.4,-63.14 229.62,-52.66 220,-43.3"/>
<polygon fill="black" stroke="black" points="222.2,-40.57 212.59,-36.1 217.32,-45.58 222.2,-40.57"/>
<g id="a_edge5&#45;headlabel"><a xlink:href="dir_000012_000000.html" target="_top" xlink:title="2">
<text text-anchor="middle" x="226.76" y="-38.54" font-family="Helvetica,sans-Serif" font-size="10.00">2</text>
</a>
</g>
</g>
<!-- dir_c91a742dc62af378abd6fa348cad170a -->
<g id="node4" class="node">
<title>dir_c91a742dc62af378abd6fa348cad170a</title>
<g id="a_node4"><a xlink:href="dir_c91a742dc62af378abd6fa348cad170a.html" target="_top" xlink:title="dec">
<polygon fill="white" stroke="black" points="222,-108 168,-108 168,-72 222,-72 222,-108"/>
<text text-anchor="middle" x="195" y="-87.5" font-family="Helvetica,sans-Serif" font-size="10.00">dec</text>
</a>
</g>
</g>
<!-- dir_c91a742dc62af378abd6fa348cad170a&#45;&gt;dir_d44c64559bbebec7f509842c48db8b23 -->
<g id="edge2" class="edge">
<title>dir_c91a742dc62af378abd6fa348cad170a&#45;&gt;dir_d44c64559bbebec7f509842c48db8b23</title>
<path fill="none" stroke="black" d="M195,-71.7C195,-63.98 195,-54.71 195,-46.11"/>
<polygon fill="black" stroke="black" points="198.5,-46.1 195,-36.1 191.5,-46.1 198.5,-46.1"/>
<g id="a_edge2&#45;headlabel"><a xlink:href="dir_000013_000000.html" target="_top" xlink:title="3">
<text text-anchor="middle" x="201.34" y="-47.2" font-family="Helvetica,sans-Serif" font-size="10.00">3</text>
</a>
</g>
</g>
<!-- dir_0297ce4e2b43c30a3ba82c256e78a19d -->
<g id="node5" class="node">
<title>dir_0297ce4e2b43c30a3ba82c256e78a19d</title>
<g id="a_node5"><a xlink:href="dir_0297ce4e2b43c30a3ba82c256e78a19d.html" target="_top" xlink:title="heh">
<polygon fill="white" stroke="black" points="150,-108 96,-108 96,-72 150,-72 150,-108"/>
<text text-anchor="middle" x="123" y="-87.5" font-family="Helvetica,sans-Serif" font-size="10.00">heh</text>
</a>
</g>
</g>
<!-- dir_0297ce4e2b43c30a3ba82c256e78a19d&#45;&gt;dir_d44c64559bbebec7f509842c48db8b23 -->
<g id="edge3" class="edge">
<title>dir_0297ce4e2b43c30a3ba82c256e78a19d&#45;&gt;dir_d44c64559bbebec7f509842c48db8b23</title>
<path fill="none" stroke="black" d="M140.8,-71.7C149.6,-63.14 160.38,-52.66 170,-43.3"/>
<polygon fill="black" stroke="black" points="172.68,-45.58 177.41,-36.1 167.8,-40.57 172.68,-45.58"/>
<g id="a_edge3&#45;headlabel"><a xlink:href="dir_000014_000000.html" target="_top" xlink:title="2">
<text text-anchor="middle" x="172.08" y="-47.63" font-family="Helvetica,sans-Serif" font-size="10.00">2</text>
</a>
</g>
</g>
<!-- dir_9e27126b12618dd2122a6c2350ae49e9 -->
<g id="node6" class="node">
<title>dir_9e27126b12618dd2122a6c2350ae49e9</title>
<g id="a_node6"><a xlink:href="dir_9e27126b12618dd2122a6c2350ae49e9.html" target="_top" xlink:title="xts">
<polygon fill="white" stroke="black" points="78,-108 24,-108 24,-72 78,-72 78,-108"/>
<text text-anchor="middle" x="51" y="-87.5" font-family="Helvetica,sans-Serif" font-size="10.00">xts</text>
</a>
</g>
</g>
<!-- dir_9e27126b12618dd2122a6c2350ae49e9&#45;&gt;dir_d44c64559bbebec7f509842c48db8b23 -->
<g id="edge4" class="edge">
<title>dir_9e27126b12618dd2122a6c2350ae49e9&#45;&gt;dir_d44c64559bbebec7f509842c48db8b23</title>
<path fill="none" stroke="black" d="M66.69,-72C72.62,-66.31 79.71,-60.33 87,-56 109.07,-42.89 136.44,-33.58 158.11,-27.57"/>
<polygon fill="black" stroke="black" points="159.16,-30.92 167.93,-24.97 157.37,-24.15 159.16,-30.92"/>
<g id="a_edge4&#45;headlabel"><a xlink:href="dir_000015_000000.html" target="_top" xlink:title="2">
<text text-anchor="middle" x="156.42" y="-32.08" font-family="Helvetica,sans-Serif" font-size="10.00">2</text>
</a>
</g>
</g>
</g>
</svg>
