<?xml version="1.0" encoding="UTF-8" standalone="no"?>
<!DOCTYPE svg PUBLIC "-//W3C//DTD SVG 1.1//EN"
 "http://www.w3.org/Graphics/SVG/1.1/DTD/svg11.dtd">
<!-- Generated by graphviz version 2.43.0 (0)
 -->
<!-- Title: src/modes/heh/heh.c Pages: 1 -->
<svg width="465pt" height="84pt"
 viewBox="0.00 0.00 464.50 84.00" xmlns="http://www.w3.org/2000/svg" xmlns:xlink="http://www.w3.org/1999/xlink">
<g id="graph0" class="graph" transform="scale(1 1) rotate(0) translate(4 80)">
<title>src/modes/heh/heh.c</title>
<!-- Node1 -->
<g id="node1" class="node">
<title>Node1</title>
<g id="a_node1"><a xlink:title="HEH mode of operation implementation.">
<polygon fill="#bfbfbf" stroke="black" points="196,-56.5 196,-75.5 313,-75.5 313,-56.5 196,-56.5"/>
<text text-anchor="middle" x="254.5" y="-63.5" font-family="Helvetica,sans-Serif" font-size="10.00">src/modes/heh/heh.c</text>
</a>
</g>
</g>
<!-- Node2 -->
<g id="node2" class="node">
<title>Node2</title>
<g id="a_node2"><a xlink:href="heh_8h.html" target="_top" xlink:title="HEH mode of operation header.">
<polygon fill="none" stroke="black" points="0,-0.5 0,-19.5 101,-19.5 101,-0.5 0,-0.5"/>
<text text-anchor="middle" x="50.5" y="-7.5" font-family="Helvetica,sans-Serif" font-size="10.00">modes/heh/heh.h</text>
</a>
</g>
</g>
<!-- Node1&#45;&gt;Node2 -->
<g id="edge1" class="edge">
<title>Node1&#45;&gt;Node2</title>
<path fill="none" stroke="midnightblue" d="M222.18,-56.44C187.11,-47.16 131,-32.31 92.54,-22.13"/>
<polygon fill="midnightblue" stroke="midnightblue" points="93.24,-18.69 82.67,-19.52 91.44,-25.46 93.24,-18.69"/>
</g>
<!-- Node3 -->
<g id="node3" class="node">
<title>Node3</title>
<g id="a_node3"><a xlink:href="utils_8h.html" target="_top" xlink:title="Some useful helper things.">
<polygon fill="none" stroke="black" points="119.5,-0.5 119.5,-19.5 211.5,-19.5 211.5,-0.5 119.5,-0.5"/>
<text text-anchor="middle" x="165.5" y="-7.5" font-family="Helvetica,sans-Serif" font-size="10.00">common/utils.h</text>
</a>
</g>
</g>
<!-- Node1&#45;&gt;Node3 -->
<g id="edge2" class="edge">
<title>Node1&#45;&gt;Node3</title>
<path fill="none" stroke="midnightblue" d="M240.2,-56.32C226.32,-47.9 205.01,-34.97 188.7,-25.07"/>
<polygon fill="midnightblue" stroke="midnightblue" points="190.13,-21.85 179.76,-19.65 186.5,-27.83 190.13,-21.85"/>
</g>
<!-- Node4 -->
<g id="node4" class="node">
<title>Node4</title>
<g id="a_node4"><a xlink:title=" ">
<polygon fill="none" stroke="#bfbfbf" points="230,-0.5 230,-19.5 279,-19.5 279,-0.5 230,-0.5"/>
<text text-anchor="middle" x="254.5" y="-7.5" font-family="Helvetica,sans-Serif" font-size="10.00">bclib.h</text>
</a>
</g>
</g>
<!-- Node1&#45;&gt;Node4 -->
<g id="edge3" class="edge">
<title>Node1&#45;&gt;Node4</title>
<path fill="none" stroke="midnightblue" d="M254.5,-56.08C254.5,-49.01 254.5,-38.86 254.5,-29.99"/>
<polygon fill="midnightblue" stroke="midnightblue" points="258,-29.75 254.5,-19.75 251,-29.75 258,-29.75"/>
</g>
<!-- Node5 -->
<g id="node5" class="node">
<title>Node5</title>
<g id="a_node5"><a xlink:title=" ">
<polygon fill="none" stroke="#bfbfbf" points="297,-0.5 297,-19.5 364,-19.5 364,-0.5 297,-0.5"/>
<text text-anchor="middle" x="330.5" y="-7.5" font-family="Helvetica,sans-Serif" font-size="10.00">galoislib.h</text>
</a>
</g>
</g>
<!-- Node1&#45;&gt;Node5 -->
<g id="edge4" class="edge">
<title>Node1&#45;&gt;Node5</title>
<path fill="none" stroke="midnightblue" d="M266.71,-56.32C278.28,-48.11 295.88,-35.6 309.66,-25.81"/>
<polygon fill="midnightblue" stroke="midnightblue" points="311.94,-28.48 318.07,-19.83 307.89,-22.77 311.94,-28.48"/>
</g>
<!-- Node6 -->
<g id="node6" class="node">
<title>Node6</title>
<g id="a_node6"><a xlink:title=" ">
<polygon fill="none" stroke="#bfbfbf" points="382.5,-0.5 382.5,-19.5 456.5,-19.5 456.5,-0.5 382.5,-0.5"/>
<text text-anchor="middle" x="419.5" y="-7.5" font-family="Helvetica,sans-Serif" font-size="10.00">immintrin.h</text>
</a>
</g>
</g>
<!-- Node1&#45;&gt;Node6 -->
<g id="edge5" class="edge">
<title>Node1&#45;&gt;Node6</title>
<path fill="none" stroke="midnightblue" d="M280.64,-56.44C308.52,-47.32 352.85,-32.81 383.9,-22.65"/>
<polygon fill="midnightblue" stroke="midnightblue" points="385.06,-25.95 393.48,-19.52 382.88,-19.3 385.06,-25.95"/>
</g>
</g>
</svg>
