<?xml version="1.0" encoding="UTF-8" standalone="no"?>
<!DOCTYPE svg PUBLIC "-//W3C//DTD SVG 1.1//EN"
 "http://www.w3.org/Graphics/SVG/1.1/DTD/svg11.dtd">
<!-- Generated by graphviz version 2.43.0 (0)
 -->
<!-- Title: include/modes/heh/heh.h Pages: 1 -->
<svg width="240pt" height="84pt"
 viewBox="0.00 0.00 240.00 84.00" xmlns="http://www.w3.org/2000/svg" xmlns:xlink="http://www.w3.org/1999/xlink">
<g id="graph0" class="graph" transform="scale(1 1) rotate(0) translate(4 80)">
<title>include/modes/heh/heh.h</title>
<!-- Node1 -->
<g id="node1" class="node">
<title>Node1</title>
<g id="a_node1"><a xlink:title="HEH mode of operation header.">
<polygon fill="#bfbfbf" stroke="black" points="41,-56.5 41,-75.5 180,-75.5 180,-56.5 41,-56.5"/>
<text text-anchor="middle" x="110.5" y="-63.5" font-family="Helvetica,sans-Serif" font-size="10.00">include/modes/heh/heh.h</text>
</a>
</g>
</g>
<!-- Node2 -->
<g id="node2" class="node">
<title>Node2</title>
<g id="a_node2"><a xlink:href="bcmlib_8h.html" target="_top" xlink:title="Library header with supported modes of operation.">
<polygon fill="none" stroke="black" points="0,-0.5 0,-19.5 97,-19.5 97,-0.5 0,-0.5"/>
<text text-anchor="middle" x="48.5" y="-7.5" font-family="Helvetica,sans-Serif" font-size="10.00">include/bcmlib.h</text>
</a>
</g>
</g>
<!-- Node1&#45;&gt;Node2 -->
<g id="edge1" class="edge">
<title>Node1&#45;&gt;Node2</title>
<path fill="none" stroke="midnightblue" d="M92.75,-49.54C81.69,-39.91 67.87,-27.87 58.64,-19.83"/>
<polygon fill="midnightblue" stroke="midnightblue" points="90.7,-52.4 100.54,-56.32 95.3,-47.12 90.7,-52.4"/>
</g>
<!-- Node3 -->
<g id="node3" class="node">
<title>Node3</title>
<g id="a_node3"><a xlink:href="heh_8c.html" target="_top" xlink:title="HEH mode of operation implementation.">
<polygon fill="none" stroke="black" points="115,-0.5 115,-19.5 232,-19.5 232,-0.5 115,-0.5"/>
<text text-anchor="middle" x="173.5" y="-7.5" font-family="Helvetica,sans-Serif" font-size="10.00">src/modes/heh/heh.c</text>
</a>
</g>
</g>
<!-- Node1&#45;&gt;Node3 -->
<g id="edge2" class="edge">
<title>Node1&#45;&gt;Node3</title>
<path fill="none" stroke="midnightblue" d="M128.54,-49.54C139.77,-39.91 153.82,-27.87 163.19,-19.83"/>
<polygon fill="midnightblue" stroke="midnightblue" points="125.94,-47.16 120.62,-56.32 130.49,-52.47 125.94,-47.16"/>
</g>
</g>
</svg>
