<?xml version="1.0" encoding="UTF-8" standalone="no"?>
<!DOCTYPE svg PUBLIC "-//W3C//DTD SVG 1.1//EN"
 "http://www.w3.org/Graphics/SVG/1.1/DTD/svg11.dtd">
<!-- Generated by graphviz version 2.43.0 (0)
 -->
<!-- Title: include/common/utils.h Pages: 1 -->
<svg width="395pt" height="84pt"
 viewBox="0.00 0.00 394.50 84.00" xmlns="http://www.w3.org/2000/svg" xmlns:xlink="http://www.w3.org/1999/xlink">
<g id="graph0" class="graph" transform="scale(1 1) rotate(0) translate(4 80)">
<title>include/common/utils.h</title>
<!-- Node1 -->
<g id="node1" class="node">
<title>Node1</title>
<g id="a_node1"><a xlink:title="Some useful helper things.">
<polygon fill="#bfbfbf" stroke="black" points="133.5,-56.5 133.5,-75.5 264.5,-75.5 264.5,-56.5 133.5,-56.5"/>
<text text-anchor="middle" x="199" y="-63.5" font-family="Helvetica,sans-Serif" font-size="10.00">include/common/utils.h</text>
</a>
</g>
</g>
<!-- Node2 -->
<g id="node2" class="node">
<title>Node2</title>
<g id="a_node2"><a xlink:href="cmc_8c.html" target="_top" xlink:title="CMC mode of operation implementation.">
<polygon fill="none" stroke="black" points="0,-0.5 0,-19.5 122,-19.5 122,-0.5 0,-0.5"/>
<text text-anchor="middle" x="61" y="-7.5" font-family="Helvetica,sans-Serif" font-size="10.00">src/modes/cmc/cmc.c</text>
</a>
</g>
</g>
<!-- Node1&#45;&gt;Node2 -->
<g id="edge1" class="edge">
<title>Node1&#45;&gt;Node2</title>
<path fill="none" stroke="midnightblue" d="M167.75,-52.77C141.83,-42.63 105.64,-28.47 82.76,-19.52"/>
<polygon fill="midnightblue" stroke="midnightblue" points="166.55,-56.06 177.13,-56.44 169.1,-49.54 166.55,-56.06"/>
</g>
<!-- Node3 -->
<g id="node3" class="node">
<title>Node3</title>
<g id="a_node3"><a xlink:href="heh_8c.html" target="_top" xlink:title="HEH mode of operation implementation.">
<polygon fill="none" stroke="black" points="140.5,-0.5 140.5,-19.5 257.5,-19.5 257.5,-0.5 140.5,-0.5"/>
<text text-anchor="middle" x="199" y="-7.5" font-family="Helvetica,sans-Serif" font-size="10.00">src/modes/heh/heh.c</text>
</a>
</g>
</g>
<!-- Node1&#45;&gt;Node3 -->
<g id="edge2" class="edge">
<title>Node1&#45;&gt;Node3</title>
<path fill="none" stroke="midnightblue" d="M199,-45.8C199,-36.91 199,-26.78 199,-19.75"/>
<polygon fill="midnightblue" stroke="midnightblue" points="195.5,-46.08 199,-56.08 202.5,-46.08 195.5,-46.08"/>
</g>
<!-- Node4 -->
<g id="node4" class="node">
<title>Node4</title>
<g id="a_node4"><a xlink:href="xts_8c.html" target="_top" xlink:title="XTS mode of operation implementation.">
<polygon fill="none" stroke="black" points="275.5,-0.5 275.5,-19.5 386.5,-19.5 386.5,-0.5 275.5,-0.5"/>
<text text-anchor="middle" x="331" y="-7.5" font-family="Helvetica,sans-Serif" font-size="10.00">src/modes/xts/xts.c</text>
</a>
</g>
</g>
<!-- Node1&#45;&gt;Node4 -->
<g id="edge3" class="edge">
<title>Node1&#45;&gt;Node4</title>
<path fill="none" stroke="midnightblue" d="M229.22,-52.64C253.99,-42.5 288.4,-28.43 310.18,-19.52"/>
<polygon fill="midnightblue" stroke="midnightblue" points="227.85,-49.42 219.92,-56.44 230.5,-55.9 227.85,-49.42"/>
</g>
</g>
</svg>
