<?xml version="1.0" encoding="UTF-8" standalone="no"?>
<!DOCTYPE svg PUBLIC "-//W3C//DTD SVG 1.1//EN"
 "http://www.w3.org/Graphics/SVG/1.1/DTD/svg11.dtd">
<!-- Generated by graphviz version 2.43.0 (0)
 -->
<!-- Title: include/common/utils.h Pages: 1 -->
<svg width="808pt" height="84pt"
 viewBox="0.00 0.00 808.00 84.00" xmlns="http://www.w3.org/2000/svg" xmlns:xlink="http://www.w3.org/1999/xlink">
<g id="graph0" class="graph" transform="scale(1 1) rotate(0) translate(4 80)">
<title>include/common/utils.h</title>
<!-- Node1 -->
<g id="node1" class="node">
<title>Node1</title>
<g id="a_node1"><a xlink:title="Some useful helper things.">
<polygon fill="#bfbfbf" stroke="black" points="343,-56.5 343,-75.5 474,-75.5 474,-56.5 343,-56.5"/>
<text text-anchor="middle" x="408.5" y="-63.5" font-family="Helvetica,sans-Serif" font-size="10.00">include/common/utils.h</text>
</a>
</g>
</g>
<!-- Node2 -->
<g id="node2" class="node">
<title>Node2</title>
<g id="a_node2"><a xlink:href="utils_8c.html" target="_top" xlink:title="Some useful helper things.">
<polygon fill="none" stroke="black" points="0,-0.5 0,-19.5 109,-19.5 109,-0.5 0,-0.5"/>
<text text-anchor="middle" x="54.5" y="-7.5" font-family="Helvetica,sans-Serif" font-size="10.00">src/common/utils.c</text>
</a>
</g>
</g>
<!-- Node1&#45;&gt;Node2 -->
<g id="edge1" class="edge">
<title>Node1&#45;&gt;Node2</title>
<path fill="none" stroke="midnightblue" d="M342.34,-54.91C275.04,-44.64 171.99,-28.92 109.17,-19.34"/>
<polygon fill="midnightblue" stroke="midnightblue" points="341.99,-58.4 352.41,-56.44 343.05,-51.48 341.99,-58.4"/>
</g>
<!-- Node3 -->
<g id="node3" class="node">
<title>Node3</title>
<g id="a_node3"><a xlink:href="cmac_8c.html" target="_top" xlink:title="CMAC mode of operation implementation.">
<polygon fill="none" stroke="black" points="127.5,-0.5 127.5,-19.5 261.5,-19.5 261.5,-0.5 127.5,-0.5"/>
<text text-anchor="middle" x="194.5" y="-7.5" font-family="Helvetica,sans-Serif" font-size="10.00">src/modes/cmac/cmac.c</text>
</a>
</g>
</g>
<!-- Node1&#45;&gt;Node3 -->
<g id="edge2" class="edge">
<title>Node1&#45;&gt;Node3</title>
<path fill="none" stroke="midnightblue" d="M364.74,-53.96C324.33,-43.76 265.13,-28.82 228.25,-19.52"/>
<polygon fill="midnightblue" stroke="midnightblue" points="364.04,-57.39 374.59,-56.44 365.75,-50.6 364.04,-57.39"/>
</g>
<!-- Node4 -->
<g id="node4" class="node">
<title>Node4</title>
<g id="a_node4"><a xlink:href="cmc_8c.html" target="_top" xlink:title="CMC mode of operation implementation.">
<polygon fill="none" stroke="black" points="279.5,-0.5 279.5,-19.5 401.5,-19.5 401.5,-0.5 279.5,-0.5"/>
<text text-anchor="middle" x="340.5" y="-7.5" font-family="Helvetica,sans-Serif" font-size="10.00">src/modes/cmc/cmc.c</text>
</a>
</g>
</g>
<!-- Node1&#45;&gt;Node4 -->
<g id="edge3" class="edge">
<title>Node1&#45;&gt;Node4</title>
<path fill="none" stroke="midnightblue" d="M389.74,-50.1C377.5,-40.38 361.94,-28.03 351.62,-19.83"/>
<polygon fill="midnightblue" stroke="midnightblue" points="387.57,-52.85 397.57,-56.32 391.92,-47.36 387.57,-52.85"/>
</g>
<!-- Node5 -->
<g id="node5" class="node">
<title>Node5</title>
<g id="a_node5"><a xlink:href="dec_8c.html" target="_top" xlink:title="DEC mode of operation implementation.">
<polygon fill="none" stroke="black" points="419.5,-0.5 419.5,-19.5 535.5,-19.5 535.5,-0.5 419.5,-0.5"/>
<text text-anchor="middle" x="477.5" y="-7.5" font-family="Helvetica,sans-Serif" font-size="10.00">src/modes/dec/dec.c</text>
</a>
</g>
</g>
<!-- Node1&#45;&gt;Node5 -->
<g id="edge4" class="edge">
<title>Node1&#45;&gt;Node5</title>
<path fill="none" stroke="midnightblue" d="M427.54,-50.1C439.96,-40.38 455.74,-28.03 466.21,-19.83"/>
<polygon fill="midnightblue" stroke="midnightblue" points="425.3,-47.4 419.59,-56.32 429.62,-52.92 425.3,-47.4"/>
</g>
<!-- Node6 -->
<g id="node6" class="node">
<title>Node6</title>
<g id="a_node6"><a xlink:href="heh_8c.html" target="_top" xlink:title="HEH mode of operation implementation.">
<polygon fill="none" stroke="black" points="554,-0.5 554,-19.5 671,-19.5 671,-0.5 554,-0.5"/>
<text text-anchor="middle" x="612.5" y="-7.5" font-family="Helvetica,sans-Serif" font-size="10.00">src/modes/heh/heh.c</text>
</a>
</g>
</g>
<!-- Node1&#45;&gt;Node6 -->
<g id="edge5" class="edge">
<title>Node1&#45;&gt;Node6</title>
<path fill="none" stroke="midnightblue" d="M450.7,-53.83C489.22,-43.63 545.32,-28.78 580.33,-19.52"/>
<polygon fill="midnightblue" stroke="midnightblue" points="449.6,-50.5 440.82,-56.44 451.39,-57.27 449.6,-50.5"/>
</g>
<!-- Node7 -->
<g id="node7" class="node">
<title>Node7</title>
<g id="a_node7"><a xlink:href="xts_8c.html" target="_top" xlink:title="XTS mode of operation implementation.">
<polygon fill="none" stroke="black" points="689,-0.5 689,-19.5 800,-19.5 800,-0.5 689,-0.5"/>
<text text-anchor="middle" x="744.5" y="-7.5" font-family="Helvetica,sans-Serif" font-size="10.00">src/modes/xts/xts.c</text>
</a>
</g>
</g>
<!-- Node1&#45;&gt;Node7 -->
<g id="edge6" class="edge">
<title>Node1&#45;&gt;Node7</title>
<path fill="none" stroke="midnightblue" d="M471.63,-54.85C535.12,-44.65 631.89,-29.1 691.51,-19.52"/>
<polygon fill="midnightblue" stroke="midnightblue" points="471.06,-51.4 461.74,-56.44 472.17,-58.31 471.06,-51.4"/>
</g>
</g>
</svg>
