<?xml version="1.0" encoding="UTF-8" standalone="no"?>
<!DOCTYPE svg PUBLIC "-//W3C//DTD SVG 1.1//EN"
 "http://www.w3.org/Graphics/SVG/1.1/DTD/svg11.dtd">
<!-- Generated by graphviz version 2.43.0 (0)
 -->
<!-- Title: src/modes/xts/xts.c Pages: 1 -->
<svg width="459pt" height="84pt"
 viewBox="0.00 0.00 458.50 84.00" xmlns="http://www.w3.org/2000/svg" xmlns:xlink="http://www.w3.org/1999/xlink">
<g id="graph0" class="graph" transform="scale(1 1) rotate(0) translate(4 80)">
<title>src/modes/xts/xts.c</title>
<!-- Node1 -->
<g id="node1" class="node">
<title>Node1</title>
<g id="a_node1"><a xlink:title="XTS mode of operation implementation.">
<polygon fill="#bfbfbf" stroke="black" points="193,-56.5 193,-75.5 304,-75.5 304,-56.5 193,-56.5"/>
<text text-anchor="middle" x="248.5" y="-63.5" font-family="Helvetica,sans-Serif" font-size="10.00">src/modes/xts/xts.c</text>
</a>
</g>
</g>
<!-- Node2 -->
<g id="node2" class="node">
<title>Node2</title>
<g id="a_node2"><a xlink:href="xts_8h.html" target="_top" xlink:title="XTS mode of operation header.">
<polygon fill="none" stroke="black" points="0,-0.5 0,-19.5 95,-19.5 95,-0.5 0,-0.5"/>
<text text-anchor="middle" x="47.5" y="-7.5" font-family="Helvetica,sans-Serif" font-size="10.00">modes/xts/xts.h</text>
</a>
</g>
</g>
<!-- Node1&#45;&gt;Node2 -->
<g id="edge1" class="edge">
<title>Node1&#45;&gt;Node2</title>
<path fill="none" stroke="midnightblue" d="M216.65,-56.44C182.1,-47.16 126.82,-32.31 88.92,-22.13"/>
<polygon fill="midnightblue" stroke="midnightblue" points="89.77,-18.73 79.2,-19.52 87.95,-25.49 89.77,-18.73"/>
</g>
<!-- Node3 -->
<g id="node3" class="node">
<title>Node3</title>
<g id="a_node3"><a xlink:href="utils_8h.html" target="_top" xlink:title="Some useful helper things.">
<polygon fill="none" stroke="black" points="113.5,-0.5 113.5,-19.5 205.5,-19.5 205.5,-0.5 113.5,-0.5"/>
<text text-anchor="middle" x="159.5" y="-7.5" font-family="Helvetica,sans-Serif" font-size="10.00">common/utils.h</text>
</a>
</g>
</g>
<!-- Node1&#45;&gt;Node3 -->
<g id="edge2" class="edge">
<title>Node1&#45;&gt;Node3</title>
<path fill="none" stroke="midnightblue" d="M234.2,-56.32C220.32,-47.9 199.01,-34.97 182.7,-25.07"/>
<polygon fill="midnightblue" stroke="midnightblue" points="184.13,-21.85 173.76,-19.65 180.5,-27.83 184.13,-21.85"/>
</g>
<!-- Node4 -->
<g id="node4" class="node">
<title>Node4</title>
<g id="a_node4"><a xlink:title=" ">
<polygon fill="none" stroke="#bfbfbf" points="224,-0.5 224,-19.5 273,-19.5 273,-0.5 224,-0.5"/>
<text text-anchor="middle" x="248.5" y="-7.5" font-family="Helvetica,sans-Serif" font-size="10.00">bclib.h</text>
</a>
</g>
</g>
<!-- Node1&#45;&gt;Node4 -->
<g id="edge3" class="edge">
<title>Node1&#45;&gt;Node4</title>
<path fill="none" stroke="midnightblue" d="M248.5,-56.08C248.5,-49.01 248.5,-38.86 248.5,-29.99"/>
<polygon fill="midnightblue" stroke="midnightblue" points="252,-29.75 248.5,-19.75 245,-29.75 252,-29.75"/>
</g>
<!-- Node5 -->
<g id="node5" class="node">
<title>Node5</title>
<g id="a_node5"><a xlink:title=" ">
<polygon fill="none" stroke="#bfbfbf" points="291,-0.5 291,-19.5 358,-19.5 358,-0.5 291,-0.5"/>
<text text-anchor="middle" x="324.5" y="-7.5" font-family="Helvetica,sans-Serif" font-size="10.00">galoislib.h</text>
</a>
</g>
</g>
<!-- Node1&#45;&gt;Node5 -->
<g id="edge4" class="edge">
<title>Node1&#45;&gt;Node5</title>
<path fill="none" stroke="midnightblue" d="M260.71,-56.32C272.28,-48.11 289.88,-35.6 303.66,-25.81"/>
<polygon fill="midnightblue" stroke="midnightblue" points="305.94,-28.48 312.07,-19.83 301.89,-22.77 305.94,-28.48"/>
</g>
<!-- Node6 -->
<g id="node6" class="node">
<title>Node6</title>
<g id="a_node6"><a xlink:title=" ">
<polygon fill="none" stroke="#bfbfbf" points="376.5,-0.5 376.5,-19.5 450.5,-19.5 450.5,-0.5 376.5,-0.5"/>
<text text-anchor="middle" x="413.5" y="-7.5" font-family="Helvetica,sans-Serif" font-size="10.00">immintrin.h</text>
</a>
</g>
</g>
<!-- Node1&#45;&gt;Node6 -->
<g id="edge5" class="edge">
<title>Node1&#45;&gt;Node6</title>
<path fill="none" stroke="midnightblue" d="M274.64,-56.44C302.52,-47.32 346.85,-32.81 377.9,-22.65"/>
<polygon fill="midnightblue" stroke="midnightblue" points="379.06,-25.95 387.48,-19.52 376.88,-19.3 379.06,-25.95"/>
</g>
</g>
</svg>
