<?xml version="1.0" encoding="UTF-8" standalone="no"?>
<!DOCTYPE svg PUBLIC "-//W3C//DTD SVG 1.1//EN"
 "http://www.w3.org/Graphics/SVG/1.1/DTD/svg11.dtd">
<!-- Generated by graphviz version 2.43.0 (0)
 -->
<!-- Title: include/modes/xts/xts.h Pages: 1 -->
<svg width="234pt" height="84pt"
 viewBox="0.00 0.00 234.00 84.00" xmlns="http://www.w3.org/2000/svg" xmlns:xlink="http://www.w3.org/1999/xlink">
<g id="graph0" class="graph" transform="scale(1 1) rotate(0) translate(4 80)">
<title>include/modes/xts/xts.h</title>
<!-- Node1 -->
<g id="node1" class="node">
<title>Node1</title>
<g id="a_node1"><a xlink:title="XTS mode of operation header.">
<polygon fill="#bfbfbf" stroke="black" points="43,-56.5 43,-75.5 176,-75.5 176,-56.5 43,-56.5"/>
<text text-anchor="middle" x="109.5" y="-63.5" font-family="Helvetica,sans-Serif" font-size="10.00">include/modes/xts/xts.h</text>
</a>
</g>
</g>
<!-- Node2 -->
<g id="node2" class="node">
<title>Node2</title>
<g id="a_node2"><a xlink:href="bcmlib_8h.html" target="_top" xlink:title="Library header with supported modes of operation.">
<polygon fill="none" stroke="black" points="0,-0.5 0,-19.5 97,-19.5 97,-0.5 0,-0.5"/>
<text text-anchor="middle" x="48.5" y="-7.5" font-family="Helvetica,sans-Serif" font-size="10.00">include/bcmlib.h</text>
</a>
</g>
</g>
<!-- Node1&#45;&gt;Node2 -->
<g id="edge1" class="edge">
<title>Node1&#45;&gt;Node2</title>
<path fill="none" stroke="midnightblue" d="M92.03,-49.54C81.16,-39.91 67.56,-27.87 58.48,-19.83"/>
<polygon fill="midnightblue" stroke="midnightblue" points="89.89,-52.32 99.7,-56.32 94.53,-47.07 89.89,-52.32"/>
</g>
<!-- Node3 -->
<g id="node3" class="node">
<title>Node3</title>
<g id="a_node3"><a xlink:href="xts_8c.html" target="_top" xlink:title="XTS mode of operation implementation.">
<polygon fill="none" stroke="black" points="115,-0.5 115,-19.5 226,-19.5 226,-0.5 115,-0.5"/>
<text text-anchor="middle" x="170.5" y="-7.5" font-family="Helvetica,sans-Serif" font-size="10.00">src/modes/xts/xts.c</text>
</a>
</g>
</g>
<!-- Node1&#45;&gt;Node3 -->
<g id="edge2" class="edge">
<title>Node1&#45;&gt;Node3</title>
<path fill="none" stroke="midnightblue" d="M126.97,-49.54C137.84,-39.91 151.44,-27.87 160.52,-19.83"/>
<polygon fill="midnightblue" stroke="midnightblue" points="124.47,-47.07 119.3,-56.32 129.11,-52.32 124.47,-47.07"/>
</g>
</g>
</svg>
